<svg width="82" height="16" viewBox="0 0 82 16" fill="none" xmlns="http://www.w3.org/2000/svg">
<path d="M2.52539 9.43359V15H0.650391V0.78125H5.89453C7.45052 0.78125 8.66797 1.17839 9.54688 1.97266C10.4323 2.76693 10.875 3.81836 10.875 5.12695C10.875 6.50716 10.4421 7.57161 9.57617 8.32031C8.7168 9.0625 7.48307 9.43359 5.875 9.43359H2.52539ZM2.52539 7.90039H5.89453C6.89714 7.90039 7.66536 7.66602 8.19922 7.19727C8.73307 6.72201 9 6.03841 9 5.14648C9 4.30013 8.73307 3.62305 8.19922 3.11523C7.66536 2.60742 6.93294 2.34375 6.00195 2.32422H2.52539V7.90039ZM12.3691 9.61914C12.3691 8.58398 12.571 7.65299 12.9746 6.82617C13.3848 5.99935 13.9512 5.36133 14.6738 4.91211C15.403 4.46289 16.2331 4.23828 17.1641 4.23828C18.6029 4.23828 19.765 4.73633 20.6504 5.73242C21.5423 6.72852 21.9883 8.05339 21.9883 9.70703V9.83398C21.9883 10.8626 21.7897 11.7871 21.3926 12.6074C21.002 13.4212 20.4388 14.056 19.7031 14.5117C18.974 14.9674 18.1341 15.1953 17.1836 15.1953C15.7513 15.1953 14.5892 14.6973 13.6973 13.7012C12.8118 12.7051 12.3691 11.3867 12.3691 9.74609V9.61914ZM14.1855 9.83398C14.1855 11.0059 14.4557 11.9466 14.9961 12.6562C15.543 13.3659 16.2721 13.7207 17.1836 13.7207C18.1016 13.7207 18.8307 13.3626 19.3711 12.6465C19.9115 11.9238 20.1816 10.9147 20.1816 9.61914C20.1816 8.46029 19.9049 7.52279 19.3516 6.80664C18.8047 6.08398 18.0755 5.72266 17.1641 5.72266C16.2721 5.72266 15.5527 6.07747 15.0059 6.78711C14.459 7.49674 14.1855 8.51237 14.1855 9.83398ZM29.3613 6.05469C29.0879 6.00911 28.7917 5.98633 28.4727 5.98633C27.2878 5.98633 26.4837 6.49089 26.0605 7.5V15H24.2539V4.43359H26.0117L26.041 5.6543C26.6335 4.71029 27.4733 4.23828 28.5605 4.23828C28.9121 4.23828 29.179 4.28385 29.3613 4.375V6.05469ZM33.9707 1.875V4.43359H35.9434V5.83008H33.9707V12.3828C33.9707 12.806 34.0586 13.125 34.2344 13.3398C34.4102 13.5482 34.7096 13.6523 35.1328 13.6523C35.3411 13.6523 35.6276 13.6133 35.9922 13.5352V15C35.5169 15.1302 35.0547 15.1953 34.6055 15.1953C33.7982 15.1953 33.1895 14.9512 32.7793 14.4629C32.3691 13.9746 32.1641 13.2812 32.1641 12.3828V5.83008H30.2402V4.43359H32.1641V1.875H33.9707ZM44.5859 15C44.4818 14.7917 44.3971 14.4206 44.332 13.8867C43.4922 14.7591 42.4896 15.1953 41.3242 15.1953C40.2826 15.1953 39.4264 14.9023 38.7559 14.3164C38.0918 13.724 37.7598 12.9753 37.7598 12.0703C37.7598 10.9701 38.1764 10.1172 39.0098 9.51172C39.8496 8.89974 41.028 8.59375 42.5449 8.59375H44.3027V7.76367C44.3027 7.13216 44.1139 6.63086 43.7363 6.25977C43.3587 5.88216 42.8021 5.69336 42.0664 5.69336C41.4219 5.69336 40.8815 5.85612 40.4453 6.18164C40.0091 6.50716 39.791 6.90104 39.791 7.36328H37.9746C37.9746 6.83594 38.1602 6.32812 38.5312 5.83984C38.9089 5.34505 39.4167 4.95443 40.0547 4.66797C40.6992 4.38151 41.4056 4.23828 42.1738 4.23828C43.3913 4.23828 44.3451 4.54427 45.0352 5.15625C45.7253 5.76172 46.0833 6.59831 46.1094 7.66602V12.5293C46.1094 13.4993 46.2331 14.2708 46.4805 14.8438V15H44.5859ZM41.5879 13.623C42.1543 13.623 42.6914 13.4766 43.1992 13.1836C43.707 12.8906 44.0749 12.5098 44.3027 12.041V9.87305H42.8867C40.6732 9.87305 39.5664 10.5208 39.5664 11.8164C39.5664 12.3828 39.7552 12.8255 40.1328 13.1445C40.5104 13.4635 40.9954 13.623 41.5879 13.623ZM50.9043 15H49.0977V0H50.9043V15ZM68.4824 2.32422H63.9121V15H62.0469V2.32422H57.4863V0.78125H68.4824V2.32422ZM75.4551 12.5098L79.5176 0.78125H81.5684L76.2949 15H74.6348L69.3711 0.78125H71.4121L75.4551 12.5098Z" fill="#1B365D"/>
</svg>
